<svg width="144" height="50" viewBox="0 0 144 50" fill="none" xmlns="http://www.w3.org/2000/svg">
<path d="M19.0272 37.3867L18.7649 34.3109C17.3343 36.6953 14.7353 38.1497 11.9695 38.0782C3.36195 38.0067 0 30.5436 0 23.176C0 15.4506 3.57654 8.22604 13.0186 8.22604C15.0691 8.17835 17.072 8.82213 18.6934 10.062V0.0238414H26.9909V19.7186C27.9924 14.6638 31.4258 8.20219 40.2718 8.20219C45.3982 7.86838 50.1192 10.9442 51.9075 15.7606C53.0758 11.8503 56.8908 8.20219 63.9008 8.20219C74.9404 8.20219 75.9657 17.0243 75.9657 18.5742V8.86981H84.2632V18.7887C84.454 13.7339 88.9843 8.41679 96.7811 8.41679C103.863 8.41679 107.845 12.3987 108.703 16.8336V8.86981H116.595L116.881 12.041C118.479 9.58512 121.245 8.13066 124.177 8.17835C130.186 8.17835 133.548 12.351 133.548 18.6218V37.3391H125.25V20.7439C125.25 17.6681 123.701 15.9037 121.149 15.9037C118.598 15.9037 117.048 17.8588 117.048 20.7439V37.3629H110.467C110.682 38.2928 110.801 39.2465 110.801 40.1764C110.801 46.4473 105.484 50 96.5188 50C87.9113 50 84.3348 46.4235 84.3348 42.1078C84.3824 39.5804 85.7654 37.2914 87.9828 36.0515C85.8607 35.1931 84.4778 33.1187 84.454 30.8298C84.4063 28.5408 85.7892 26.4425 87.8875 25.5603C85.7415 24.2728 84.4063 22.0076 84.3109 19.5041V37.3391H76.0134V30.949C74.4635 36.123 68.9318 38.0305 64.0916 38.0305C56.4616 38.0305 53.2904 34.3348 51.9552 30.7105C50 35.2885 45.422 38.1974 40.4387 38.0305C32.1412 38.0305 28.1593 32.2365 27.0386 26.8479V37.3629H19.1464M13.3763 15.2837C9.72818 15.2837 8.22604 18.598 8.22604 23.0091C8.22604 27.4201 9.51359 30.7344 13.3763 30.7344C16.9051 30.7344 18.6457 28.1116 18.6457 23.0091C18.6457 17.9065 16.8813 15.2837 13.3763 15.2837ZM40.1049 15.093C37.5536 14.9738 35.3839 16.9528 35.2647 19.5041V19.5279H44.969C44.8498 16.9766 42.7039 14.9976 40.1526 15.093C40.1288 15.093 40.1288 15.093 40.1049 15.093ZM35.2647 25.6557C35.3839 27.9447 36.6714 31.1397 40.391 31.1397C42.5608 31.2828 44.4683 29.7091 44.7544 27.5632H59.0367C59.1559 30.186 61.3257 31.4258 63.7339 31.4258C66.8097 31.4258 68.3596 30.4244 68.3596 28.9461C68.3596 27.4678 67.5489 26.9909 64.5923 26.7048C59.4182 26.1564 55.4363 25.4173 53.2904 23.176L53.1474 25.6557H35.2647ZM75.9418 25.3934V18.598H68.0734C67.9304 16.2375 66.5236 14.8307 63.6385 14.8307C61.0873 14.8307 59.9905 15.9037 59.9905 17.072C59.9905 18.4788 60.7296 19.1464 67.7158 19.8379C72.2699 20.267 74.9642 22.3891 75.918 25.4173H75.9418V25.3934ZM75.8941 0H84.1917V7.55842H75.8941V0ZM93.3476 37.3867C92.3224 37.959 91.6547 39.0319 91.6071 40.2003C91.6071 42.1555 93.4192 43.6338 96.7811 43.6338C100.882 43.6338 102.957 42.5608 102.957 40.2003C102.957 37.8398 101.264 37.3867 98.0925 37.3867H93.3476ZM108.631 34.2871V21.1493C107.892 25.0596 105.198 29.3276 96.7096 29.3276C95.3267 29.3276 93.9437 29.0415 92.6562 28.5169C92.1555 28.7792 91.8216 29.3038 91.8216 29.876C91.8216 30.8059 92.7754 31.2351 93.896 31.2351H98.0687C102.718 31.2589 106.485 31.9981 108.631 34.2871ZM96.7096 14.8307C94.4921 14.783 92.6323 16.5474 92.5846 18.7649C92.5846 18.8603 92.5846 18.9556 92.5846 19.0749C92.5846 21.3162 94.3968 23.1283 96.6381 23.1283C98.8793 23.1283 100.691 21.3162 100.691 19.0749C100.811 16.8813 99.1416 14.9738 96.9242 14.8546C96.8526 14.8307 96.7811 14.8307 96.7096 14.8307Z" fill="white"/>
<path d="M135.455 13.8054L140.081 12.3033L135.455 10.9204V9.32283L143.038 7.79684V9.32283L138.364 10.3004L142.871 11.6595V13.0424L138.364 14.4015L143.038 15.3314V16.762L135.455 15.3314V13.8054Z" fill="white"/>
<path d="M141.512 19.3133H140.081V22.8183H138.603V19.3133H136.862V23.1998H135.455V17.6919H143.038V23.1998H141.512V19.3133Z" fill="white"/>
<path d="M141.512 26.1087H140.081V29.4707H138.603V26.1087H136.862V30.0191H135.455V24.4397H143.038V30.0191H141.512V26.1087Z" fill="white"/>
<path d="M135.455 37.649V35.67L138.722 33.7386L137.53 32.7134H135.455V31.1635H143.038V32.7134H139.89L143.038 35.4792V37.4106L140.081 34.8831L135.455 37.649Z" fill="white"/>
</svg>
