<svg width="27" height="27" viewBox="0 0 27 27" fill="none" xmlns="http://www.w3.org/2000/svg">
<g clip-path="url(#clip0_8_73)">
<path d="M3.97729 23.2955L5.73979 19.2364C4.39139 17.3222 3.78787 14.9818 4.0425 12.6543C4.29713 10.3268 5.39241 8.17228 7.12278 6.59499C8.85315 5.01769 11.0997 4.12609 13.4407 4.08751C15.7818 4.04894 18.0565 4.86604 19.8379 6.38547C21.6193 7.9049 22.7849 10.0222 23.1161 12.34C23.4473 14.6579 22.9212 17.0169 21.6366 18.9744C20.352 20.9319 18.3972 22.3533 16.139 22.9719C13.8808 23.5905 11.4745 23.3637 9.37161 22.3341L3.97729 23.2955Z" stroke="white" stroke-width="2.13636" stroke-linecap="round" stroke-linejoin="round"/>
<path d="M10.3864 11.5455C10.3864 11.6871 10.4426 11.823 10.5428 11.9231C10.6429 12.0233 10.7788 12.0795 10.9204 12.0795C11.0621 12.0795 11.1979 12.0233 11.2981 11.9231C11.3983 11.823 11.4545 11.6871 11.4545 11.5455V10.4773C11.4545 10.3356 11.3983 10.1998 11.2981 10.0996C11.1979 9.99945 11.0621 9.94318 10.9204 9.94318C10.7788 9.94318 10.6429 9.99945 10.5428 10.0996C10.4426 10.1998 10.3864 10.3356 10.3864 10.4773V11.5455ZM10.3864 11.5455C10.3864 12.962 10.9491 14.3204 11.9507 15.322C12.9523 16.3237 14.3108 16.8864 15.7273 16.8864M15.7273 16.8864H16.7954C16.9371 16.8864 17.0729 16.8301 17.1731 16.7299C17.2733 16.6298 17.3295 16.4939 17.3295 16.3523C17.3295 16.2106 17.2733 16.0748 17.1731 15.9746C17.0729 15.8745 16.9371 15.8182 16.7954 15.8182H15.7273C15.5856 15.8182 15.4498 15.8745 15.3496 15.9746C15.2494 16.0748 15.1932 16.2106 15.1932 16.3523C15.1932 16.4939 15.2494 16.6298 15.3496 16.7299C15.4498 16.8301 15.5856 16.8864 15.7273 16.8864Z" stroke="white" stroke-width="2.13636" stroke-linecap="round" stroke-linejoin="round"/>
</g>
<defs>
<clipPath id="clip0_8_73">
<rect width="25.6364" height="25.6364" fill="white" transform="translate(0.772705 0.863636)"/>
</clipPath>
</defs>
</svg>
